<?xml version="1.0" encoding="UTF-8"?><svg id="Layer_1" xmlns="http://www.w3.org/2000/svg" width="1900" height="825" viewBox="0 0 1900 825"><g><path d="m633.29,350.69c0,7.56.77,13.7,2.31,18.41,1.54,4.71,4.13,8.15,7.77,10.32,3.64,2.17,7.13,3.57,10.46,4.18,3.33.62,8.27,1.05,14.81,1.3,1.97,1.24,2.96,3.41,2.96,6.51s-.96,5.27-2.89,6.51c-20.33-.5-40.92-.74-61.74-.74-18.91,0-38.47.25-58.68.74-1.98-.99-3.01-3.13-3.07-6.42-.06-3.28.96-5.49,3.07-6.6,6.32-.25,11-.68,14.04-1.3,3.04-.62,6.14-2.01,9.3-4.18,3.16-2.17,5.33-5.58,6.51-10.23,1.18-4.65,1.77-10.82,1.77-18.51v-152.33c0-15.25-1.98-24.71-5.95-28.36-3.97-3.66-13.08-5.73-27.34-6.23-.99-1.24-1.49-3.41-1.49-6.51s.49-5.27,1.49-6.51l58.77.74h114.2c6.57,0,12.83-.49,18.79-1.49.99,0,1.49.37,1.49,1.12.25.74.62,4.7,1.12,11.89.49,7.18,1.05,15.35,1.67,24.5.62,9.15,1.18,15.91,1.67,20.28-4.59,2.25-10.04,2.87-16.37,1.87-4.83-15.12-10.21-26.05-16.15-32.8-5.94-6.75-15.47-10.12-28.59-10.12h-34.34c-4.33,0-8.01,1.91-11.04,5.72-3.03,3.81-4.55,8.15-4.55,13.02v80.21h30.79c13.11,0,22.04-1.52,26.8-4.56,4.76-3.04,7.39-9.64,7.88-19.81,1.24-1.24,4.03-1.86,8.37-1.86s7,.56,8,1.67c-.5,15.34-.74,26.31-.74,32.92,0,4.59.25,15.81.74,33.66-.99,1.24-3.66,1.86-8,1.86s-7.13-.62-8.37-1.86c-.49-8.93-3.21-15.22-8.16-18.88-4.95-3.66-13.79-5.49-26.52-5.49h-30.79v67.33Z"/><path d="m946.71,383.8c-2.76-.48-4.46-1-8.37-2.24-3.9-1.24-6.92-3.25-9.02-6.05-2.11-2.79-4.04-6.48-5.76-11.06l-52.83-147.87c-2.61,1.61-9.67,4.06-21.2,7.34s-19.47,4.93-23.81,4.93l-54.88,129.45c-2.98,7.32-6.57,12.96-10.78,16.93-4.21,3.96-8.18,6.45-11.9,7.44-3.71.99-8.87,1.74-15.44,2.23-1.24,1.12-1.86,3.32-1.86,6.61s.62,5.43,1.86,6.42c18.86-.5,29.51-.74,32-.74,15,0,31.93.24,50.77.74,1-.99,1.49-3.15,1.49-6.51s-.49-5.51-1.49-6.51c-2.6-.24-4.52-.43-5.76-.56-1.24-.12-3.01-.3-5.3-.55-2.3-.25-4.07-.56-5.31-.93-1.24-.38-2.69-.81-4.37-1.31-1.67-.49-2.88-1.18-3.62-2.05-.75-.87-1.52-1.88-2.33-3.07-.81-1.17-1.12-2.54-.93-4.08.19-1.55.65-3.32,1.39-5.31l11.34-29.76c1.24-2.98,4.4-4.46,9.49-4.46h52.27l12.46,37.02c.49,1.74.8,3.23.93,4.46.12,1.24,0,2.38-.37,3.44-.38,1.05-.87,1.95-1.49,2.69-.63.75-1.56,1.31-2.8,1.68s-2.38.75-3.44,1.12c-1.05.37-2.51.62-4.37.74-1.86.13-3.5.25-4.93.37-1.43.13-3.34.25-5.76.38-2.43.12-4.38.18-5.87.18-.99,1.12-1.49,3.32-1.49,6.61s.5,5.43,1.49,6.42c18.86-.5,39.31-.74,61.39-.74h170.66c7.44,0,22.69.24,45.76.74,4.09-20.18,7.38-41.21,9.86-63.1-4.58-2.24-10.05-2.87-16.37-1.87-4.34,15.58-11.07,27.64-20.18,36.18-9.12,8.53-22.97,12.8-41.57,12.8h-7.63c-8.81,0-13.2-10.09-13.2-30.28v-82.99c0-7.73.56-13.93,1.68-18.61,1.12-4.67,3.27-8.09,6.45-10.27,3.18-2.19,6.32-3.62,9.44-4.31,3.12-.68,7.86-1.15,14.21-1.39,1.75-1,2.62-3.13,2.62-6.43s-.87-5.42-2.62-6.42c-8.46,0-16.59.07-24.38.19-7.77.12-13.93.25-18.44.37-4.51.13-8.92.19-13.25.19-10.31,0-29.31-.25-56.99-.75-1.74,1-2.61,3.14-2.61,6.42s.87,5.43,2.62,6.43c6.48.37,11.25.86,14.3,1.48,3.06.63,6.18,2.02,9.36,4.19,3.18,2.17,5.33,5.61,6.45,10.32,1.12,4.71,1.68,10.86,1.68,18.41v82.21c0,7.69-.56,13.86-1.68,18.51-1.12,4.65-3.27,8.06-6.45,10.23-3.18,2.18-6.33,3.57-9.45,4.19-2.68.54-6.08,1.25-11.65,1.19-4.93-.05-7.26-.52-10.02-1Zm-130.48-64.36c-3.11,0-5.14-.24-6.14-.74-.99-.5-1.24-1.37-.74-2.61l23.62-61.74h1.86l22.51,65.09h-41.1Z"/><path d="m1245.73,216.59c10.17,0,29.57,1.55,58.22,4.65,4.59,28.89,7.25,47.18,8,54.87-5.33,3.1-10.42,3.72-15.25,1.86-2.85-9.42-5.15-16.27-6.88-20.55-1.74-4.28-4.56-8.77-8.46-13.48-3.91-4.71-9.05-7.9-15.44-9.58-6.39-1.67-14.54-2.51-24.46-2.51-3.6,0-7.53,1.21-11.81,3.63s-8.83,6.23-13.67,11.44-8.9,13.14-12.18,23.81c-3.29,10.67-4.93,23.13-4.93,37.38s1.52,26.88,4.56,37.11c3.04,10.23,7.1,17.76,12.18,22.6,5.08,4.84,10.11,8.28,15.07,10.32,4.96,2.05,10.23,3.07,15.81,3.07,25.17,0,45.07-7.63,59.7-22.88,4.09,1.74,6.76,4.53,8,8.37-16,22.82-39.31,34.22-69.93,34.22-33.23,0-58-8.31-74.3-24.92-16.31-16.61-24.46-38-24.46-64.17,0-31.99,9.39-55.86,28.18-71.61,18.79-15.75,42.81-23.62,72.07-23.62Z"/><path d="m1491.3,239.81c-18.14-15.49-42.12-23.22-71.92-23.22-27.65,0-50.63,8.61-68.91,25.82-18.3,17.22-27.44,40.57-27.44,70.05s9.2,51.36,27.62,66.2c18.42,14.83,41.45,22.25,69.1,22.25,29.57,0,53.41-7.98,71.55-23.93,18.14-15.94,27.21-39.06,27.21-69.35s-9.07-52.33-27.21-67.81Zm-36.5,127.92c-6.88,11.95-17.95,17.93-33.2,17.93-16.25,0-27.83-6.23-34.78-18.66-6.94-12.45-10.42-32.12-10.42-58.99s3.34-47.67,10.05-59.07c6.7-11.39,17.42-17.09,32.18-17.09,17.97,0,30.22,6.13,36.73,18.39,6.51,12.26,9.76,33.13,9.76,62.6,0,24.65-3.44,42.95-10.32,54.9Z"/><path d="m1669.09,384.91l-82.58-110.85c-4.59-6.2-7.25-9.24-8-9.11-1.24.12-1.86,4.59-1.86,13.39v72.35c0,15.25,1.52,24.58,4.56,27.99,3.04,3.41,10.63,5.67,22.78,6.79,1.24,1.24,1.89,3.38,1.95,6.42.06,3.04-.59,5.05-1.95,6.04-15.25-.5-27.41-.74-36.45-.74-11.41,0-24.74.25-39.99.74-.99-.99-1.49-3-1.49-6.04s.49-5.18,1.49-6.42c12.15-.74,19.74-2.91,22.78-6.51,3.04-3.59,4.56-13.02,4.56-28.27v-104.34c-4.09-7.56-11.6-11.78-22.51-12.65-2.23,0-3.35-.74-3.35-2.23v-9.11l.74-1.12,77,.74,87.23,118.48c1.98,2.85,3.22,4.31,3.72,4.37.49.06.99-1.64,1.49-5.11v-71.24c0-15.25-1.52-24.64-4.56-28.18-3.04-3.53-10.63-5.73-22.78-6.6-1.24-1.24-1.86-3.38-1.86-6.42s.62-5.05,1.86-6.04c15.25.5,28.58.74,39.99.74,9.17,0,21.39-.25,36.64-.74.99.99,1.49,3.01,1.49,6.04s-.5,5.18-1.49,6.42c-12.15.99-19.78,3.23-22.88,6.7-3.1,3.47-4.65,12.83-4.65,28.09v89.84l1.86,38.87c-3.23,1.49-8.5,2.63-15.81,3.44-7.32.81-14.88,1.21-22.69,1.21-5.33-4.84-10.42-10.48-15.25-16.93Z"/></g><g><path d="m549.4,670.35h79.27c15.38,0,36.9.31,64.57.93,2.8-9.71,7.52-36.12,14.19-79.18-6.05-3.44-12.71-4.23-20-2.34-5.09,18.32-13.46,33.15-25.12,44.51-11.65,11.36-26.05,17.03-43.17,17.03h-19.91c-5.4,0-10.3-2.24-14.7-6.7-4.39-4.45-6.59-9.9-6.59-16.32v-67.89h10.42c16.51,0,27.51,1.67,32.98,5s8.52,10.27,9.14,20.81c1.39,1.55,4.61,2.32,9.65,2.32s8.17-.68,9.42-2.06c-.63-22.49-.94-34.04-.94-34.68,0-3.09.31-14.18.94-33.25-1.25-1.7-4.43-2.51-9.53-2.44-5.12.08-8.3.89-9.53,2.44-.62,12.4-3.36,19.77-8.21,22.09-4.87,2.32-16.17,3.49-33.91,3.49h-10.42v-49.52c0-5.74,2.12-11.05,6.37-15.93,4.24-4.88,9.21-7.32,14.93-7.32h22.45c16.65,0,28.93,3.95,36.79,11.86s14.65,20.91,20.37,39.06c7.27.93,13.63.15,19.06-2.32-.62-5.43-1.48-13.76-2.56-25-1.08-11.24-2.01-21.01-2.79-29.31-.77-8.31-1.32-12.92-1.63-13.82-.15-.93-.86-1.39-2.1-1.39-7.34,1.24-15.15,1.86-23.44,1.86h-117.19l-73.49-.93c-1.24,1.24-1.86,3.92-1.86,8.02s.62,6.77,1.86,8.02c17.82.76,29.18,3.43,34.06,7.98,4.89,4.55,7.33,16.31,7.33,35.28v101.79c0,18.66-4.83,27.22-10.32,33.51-6.46,7.41-21.18,10.01-31.56,9.99-10.38-.02-18.59-2.46-25.1-7.39-6.51-4.93-13.4-13.03-20.69-24.31l-64.64-100.97c14.58-6.33,27.03-16.31,37.38-29.91,10.34-13.62,15.51-31.47,15.51-53.59.15-28.91-11.71-50.64-35.62-65.17-17.4-10.37-43.27-15.55-77.61-15.55-6.36,0-31.38.55-75.09,1.63-43.71,1.08-68.74,1.62-75.1,1.62-2.17,1.21-3.25,3.77-3.25,7.69s1.08,6.62,3.25,8.13c8.06.31,13.99.85,17.78,1.63,3.8.77,7.68,2.51,11.63,5.24,3.95,2.71,6.63,7.02,8.02,12.92,1.39,5.9,2.08,13.59,2.08,23.06v191.2c0,9.63-.69,17.36-2.08,23.18-1.39,5.82-4.07,10.09-8.02,12.81-3.95,2.71-7.87,4.46-11.74,5.25-3.88.77-9.77,1.31-17.68,1.62-2.17,1.39-3.25,4.07-3.25,8.02s1.08,6.7,3.25,8.25c25.41-.58,49.91-.87,73.47-.87s46.89.29,72.3.87c2.33-1.45,3.45-4.01,3.37-7.67-.07-3.65-1.2-6.21-3.37-7.68-7.9-.31-13.75-.86-17.55-1.64-3.81-.79-7.68-2.56-11.63-5.32-3.95-2.75-6.67-7.12-8.13-13.11-1.48-5.98-2.21-13.77-2.21-23.37v-77.92c17.82,0,29.49.99,34.98,2.95,5.5,1.98,10.03,5.87,13.61,11.69l55.24,84.05c19.36,27.82,40.27,41.73,62.74,41.73,27.28,0,32.59-1.22,49.93-2.32,36.64-2.33,73.39-2.33,73.39-2.33Zm-217.36-168.36c-11.94,9.02-29.29,13.53-52.08,13.53h-20.46v-94.96c0-16.94,1.74-28.26,5.23-33.94s11.28-8.51,23.37-8.51c41.23,0,61.85,23.25,61.85,69.74,0,27.07-5.98,45.1-17.9,54.13Z"/><path d="m964.68,481.17c-3.43-8.5-8.86-15.51-16.32-21.02-11.81-8.67-33.41-13-64.8-13-6.36,0-19.84.55-40.46,1.63-20.62,1.08-33.01,1.63-37.2,1.63-17.82,0-40.38-.31-67.65-.93-1.25,1.26-1.87,4.08-1.87,8.45s.62,7.2,1.87,8.51c15.19.71,25.1,3.67,29.76,8.87,4.64,5.19,6.98,17.33,6.98,36.4v98.16c0,19.08-2.33,31.21-6.98,36.41-4.65,5.19-14.57,8.09-29.76,8.71-1.25,1.39-1.87,4.15-1.87,8.26s.62,6.77,1.87,8.01c26.65-.62,49.21-.93,67.65-.93s40.38.31,67.66.93c1.24-1.24,1.86-3.95,1.86-8.13s-.62-6.89-1.86-8.14c-15.34-.62-25.31-3.52-29.88-8.71-4.57-5.19-6.86-17.32-6.86-36.39v-33.25c8.21,3.42,21.7,5.12,40.45,5.12,30.93,0,54.08-7.71,69.46-23.13,15.38-15.43,23.08-32.98,23.08-52.66,0-8.03-1.71-16.3-5.13-24.81Zm-97.4,81.53c-12.71,0-22.87-1.39-30.46-4.18v-89.05c6.36-1.55,15.72-2.32,28.13-2.32,25.43-.24,38.13,15.42,38.13,46.96s-11.93,48.59-35.79,48.59Z"/><path d="m1188.9,473.63c-22.68-19.36-52.65-29.03-89.92-29.03-34.56,0-63.27,10.77-86.13,32.29-22.87,21.52-34.29,50.71-34.29,87.55s11.51,64.21,34.53,82.75c23.01,18.53,51.8,27.81,86.36,27.81,36.96,0,66.78-9.96,89.46-29.9,22.66-19.94,34.01-48.83,34.01-86.69s-11.34-65.42-34.01-84.78Zm-45.63,159.9c-8.61,14.94-22.44,22.4-41.5,22.4-20.31,0-34.79-7.77-43.48-23.33-8.68-15.56-13.01-40.14-13.01-73.73s4.18-59.6,12.55-73.84c8.37-14.25,21.78-21.37,40.22-21.37,22.47,0,37.78,7.67,45.92,22.99,8.13,15.33,12.2,41.41,12.2,78.25,0,30.81-4.3,53.69-12.9,68.62Z"/><path d="m1492.97,656.17c-13.63-3.26-25.87-12.94-36.71-29.06l-36.01-54.88c-2.01-3.09-3.18-5.34-3.49-6.74,17.41-5.27,30.45-13.26,39.08-23.95,8.63-10.69,12.95-22.56,12.95-35.57,0-15.38-6.71-28.99-20.15-40.83-13.44-11.84-35.45-17.76-66.04-17.76-6.39,0-19.97.55-40.72,1.63-20.75,1.08-33.23,1.62-37.45,1.62-17.64,0-39.97-.31-66.98-.93-1.23,1.3-1.85,4.08-1.85,8.37s.6,7.08,1.79,8.37c14.64.79,24.2,3.76,28.69,8.95,4.49,5.2,6.73,17.32,6.73,36.39v98.11c0,19.07-2.24,31.2-6.73,36.39-4.49,5.19-14.05,8.09-28.69,8.71-1.19,1.39-1.79,4.15-1.79,8.26s.62,6.77,1.85,8.01c26.39-.62,48.72-.93,66.98-.93,11.59,0,31.16.31,58.71.93.38-1.24.57-3.95.57-8.13s-.6-6.89-1.79-8.14c-10.34-.93-17.49-4.07-21.4-9.42s-5.88-17.24-5.88-35.69v-38.13c7.26-.31,13.9,1.24,19.93,4.65,1.08.62,2.44,1.89,4.06,3.83,1.62,1.94,3.29,4.3,4.98,7.09l30.35,48.13c7.31,11.15,16.67,20.45,28.09,27.89,11.42,7.44,23.34,11.17,35.78,11.17,19.57,0,31.45-1.08,35.6-3.26.62-1.24.93-3.68.93-7.32s-.46-6.24-1.39-7.78Zm-94.5-122.52c-2.39,5.43-5.32,9.57-8.8,12.44-3.48,2.87-8.38,5.08-14.71,6.63-6.33,1.55-12.36,2.48-18.07,2.79s-13.13.46-22.25.46v-86.96c6.33-1.55,16.14-2.39,29.43-2.56,25.33,0,38,15.89,38,47.66,0,7.59-1.19,14.11-3.59,19.53Z"/><path d="m1645.39,607.11c0,19.99,2.39,32.82,7.18,38.48,4.79,5.66,16.46,8.8,35,9.42,1.54,1.24,2.35,3.95,2.43,8.14.08,4.18-.73,6.9-2.43,8.14-32.13-.62-56.82-.93-74.06-.93s-40.73.31-72.28.93c-.31-1.24-.46-3.91-.46-8.02s.74-6.86,2.23-8.25c17.97-.62,29.22-3.76,33.75-9.42,4.53-5.66,6.8-18.48,6.8-38.48v-93c0-18.44-1.9-30.34-5.7-35.69-3.8-5.35-12.67-8.02-26.62-8.02-14.88,0-25.03,3.25-30.46,9.76-5.43,6.51-10.69,20.07-15.81,40.69-8.22,0-14.41-.77-18.6-2.32,6.35-27.28,10.38-50.45,12.09-69.52,0-.93.62-1.39,1.86-1.39,32.31,2.48,61.58,3.72,87.81,3.72h48.23c32.63,0,63.54-1.24,92.73-3.72.93,0,1.39.46,1.39,1.39.31,21.24,2.32,43.94,6.04,68.12-3.57,1.55-9.69,2.32-18.37,2.32-4.48-19.68-9.66-32.78-15.53-39.29-5.87-6.51-17.38-9.76-34.53-9.76-10.51,0-16.92,2.44-19.24,7.32-2.32,4.88-3.48,17.48-3.48,37.78v91.6Z"/></g><g><path d="m225.54,296.6c0,9.5,1.14,15.59,3.41,18.28,2.27,2.69,7.82,4.18,16.62,4.47.73.59,1.12,1.88,1.16,3.87.04,1.99-.35,3.28-1.16,3.87-15.26-.3-26.99-.44-35.18-.44s-19.35.15-34.33.44c-.15-.59-.22-1.86-.22-3.81s.35-3.26,1.06-3.92c8.54-.29,13.88-1.78,16.03-4.47,2.15-2.69,3.23-8.78,3.23-18.28v-44.17c0-8.76-.9-14.41-2.71-16.95-1.8-2.54-6.02-3.81-12.64-3.81-7.07,0-11.89,1.55-14.47,4.64-2.58,3.09-5.08,9.54-7.51,19.33-3.9,0-6.85-.37-8.83-1.1,3.02-12.96,4.93-23.96,5.74-33.02,0-.44.29-.66.88-.66,15.35,1.18,29.25,1.77,41.71,1.77h22.91c15.5,0,30.18-.59,44.05-1.77.44,0,.66.22.66.66.15,10.09,1.1,20.87,2.87,32.36-1.69.74-4.6,1.1-8.72,1.1-2.13-9.35-4.59-15.57-7.38-18.66-2.79-3.09-8.26-4.64-16.4-4.64-4.99,0-8.04,1.16-9.14,3.48s-1.65,8.3-1.65,17.95v43.51Z"/><path d="m368.62,251.85c0-9.58-.8-15.56-2.39-17.93s-5.87-3.75-12.84-4.13c-.59-.59-.89-1.86-.89-3.81s.33-3.22.99-3.81c12.93.3,22.89.44,29.87.44,8.73,0,19.38-.15,31.97-.44.59.59.9,1.86.94,3.81.04,1.95-.28,3.22-.94,3.81-7.22.3-11.91,1.69-14.08,4.2-2.17,2.5-3.26,8.28-3.26,17.34v46.6c0,9.06,1.09,14.82,3.26,17.28,2.17,2.47,6.86,3.85,14.08,4.14.59.59.9,1.88.94,3.87.04,1.99-.28,3.28-.94,3.87-12.95-.3-23.61-.44-31.97-.44-7.2,0-17.16.15-29.87.44-.66-.59-.99-1.86-.99-3.81s.3-3.26.89-3.92c6.97-.29,11.25-1.6,12.84-3.92s2.39-8.15,2.39-17.5v-22.2c-18.48-.51-35.05-.51-49.7,0v22.2c0,9.35.79,15.18,2.37,17.5,1.58,2.32,5.83,3.63,12.76,3.92.59.59.88,1.88.88,3.87s-.3,3.28-.88,3.87c-12.96-.3-22.9-.44-29.82-.44-8.76,0-19.47.15-32.14.44-.59-.59-.88-1.86-.88-3.81s.29-3.26.88-3.92c7.21-.29,11.93-1.67,14.14-4.14,2.21-2.47,3.31-8.23,3.31-17.28v-46.6c0-9.06-1.1-14.82-3.31-17.28-2.21-2.47-6.92-3.88-14.14-4.25-.59-.59-.88-1.86-.88-3.81s.29-3.22.88-3.81c12.96.3,23.67.44,32.14.44,7.21,0,17.15-.15,29.82-.44.59.59.88,1.86.88,3.81s-.3,3.22-.88,3.81c-6.92.3-11.17,1.66-12.76,4.07-1.58,2.41-2.37,8.41-2.37,17.99v14.82c16.93.52,33.5.52,49.7,0v-14.82Z"/><path d="m476.22,266.68c8.43,0,13.8-.55,16.11-1.66,2.31-1.1,3.61-4.6,3.9-10.49.59-.74,2.1-1.12,4.53-1.16,2.43-.04,3.94.35,4.53,1.16-.3,9.06-.44,14.32-.44,15.79,0,.3.15,5.79.44,16.47-.59.65-2.08.98-4.47.98s-3.92-.37-4.58-1.1c-.29-5.01-1.74-8.3-4.34-9.88-2.6-1.58-7.83-2.37-15.67-2.37h-4.95v32.25c0,3.05,1.04,5.64,3.13,7.75,2.09,2.12,4.42,3.18,6.98,3.18h9.46c8.14,0,14.97-2.7,20.51-8.09,5.54-5.39,9.51-12.44,11.93-21.14,3.46-.89,6.63-.52,9.5,1.11-3.17,20.46-5.41,33-6.74,37.62-13.14-.3-23.37-.44-30.67-.44h-37.65c-15.8.15-27.33.29-34.61.44-.58-.59-.87-1.86-.87-3.81s.28-3.26.85-3.92c8.1-.29,13.26-1.52,15.48-3.68s3.33-7.67,3.33-16.54v-48.35c0-9.01-1.16-14.6-3.48-16.76-2.32-2.16-7.71-3.43-16.18-3.79-.59-.59-.88-1.86-.88-3.81s.29-3.22.88-3.81l34.91.44h55.67c3.93,0,7.64-.29,11.13-.88.59,0,.92.22.99.66.15.43.4,2.62.77,6.56.37,3.94.81,8.58,1.33,13.92.51,5.34.92,9.3,1.21,11.87-2.58,1.18-5.6,1.55-9.06,1.1-2.71-8.61-5.94-14.8-9.67-18.55-3.74-3.75-9.56-5.63-17.48-5.63h-10.66c-2.71,0-5.07,1.16-7.09,3.48-2.02,2.32-3.02,4.84-3.02,7.56v23.52h4.95Z"/></g></svg>