<?xml version="1.0" encoding="UTF-8"?><svg id="Layer_1" xmlns="http://www.w3.org/2000/svg" width="1344.13" height="441.94" viewBox="0 0 1344.13 441.94"><g><path d="m406,168.59c0,6.35.65,11.51,1.94,15.47,1.29,3.96,3.47,6.85,6.53,8.67,3.06,1.82,5.99,3,8.78,3.52,2.8.52,6.95.89,12.44,1.09,1.66,1.04,2.49,2.87,2.49,5.47s-.81,4.43-2.43,5.47c-17.08-.42-34.37-.62-51.87-.62-15.89,0-32.32.21-49.3.62-1.67-.83-2.53-2.63-2.58-5.39-.05-2.76.81-4.61,2.58-5.55,5.31-.21,9.24-.57,11.8-1.09,2.55-.52,5.16-1.69,7.81-3.52,2.66-1.82,4.48-4.69,5.47-8.59.99-3.91,1.48-9.09,1.48-15.55V40.62c0-12.81-1.67-20.75-5-23.83-3.33-3.07-10.99-4.82-22.97-5.23-.83-1.04-1.25-2.86-1.25-5.47s.42-4.43,1.25-5.47l49.38.62h95.94c5.52,0,10.78-.42,15.78-1.25.83,0,1.25.31,1.25.94.21.62.52,3.95.94,9.99.42,6.04.88,12.89,1.41,20.58.52,7.69.99,13.37,1.41,17.04-3.85,1.89-8.44,2.41-13.75,1.57-4.06-12.7-8.58-21.88-13.57-27.55-4.99-5.67-13-8.5-24.02-8.5h-28.85c-3.64,0-6.73,1.6-9.28,4.8-2.55,3.2-3.82,6.85-3.82,10.94v67.38h25.86c11.01,0,18.52-1.27,22.51-3.83,4-2.55,6.21-8.1,6.62-16.64,1.04-1.04,3.38-1.56,7.03-1.56s5.88.47,6.72,1.41c-.42,12.89-.62,22.1-.62,27.66,0,3.85.21,13.28.62,28.28-.83,1.04-3.07,1.56-6.72,1.56s-5.99-.52-7.03-1.56c-.42-7.5-2.7-12.79-6.86-15.86-4.16-3.07-11.58-4.61-22.28-4.61h-25.86v56.56Z"/><path d="m669.3,196.41c-2.32-.4-3.75-.84-7.03-1.88-3.28-1.04-5.81-2.73-7.58-5.08-1.77-2.34-3.39-5.44-4.84-9.29l-44.38-124.22c-2.19,1.35-8.12,3.41-17.81,6.17s-16.36,4.14-20,4.14l-46.1,108.75c-2.5,6.15-5.52,10.89-9.06,14.22-3.54,3.33-6.87,5.42-10,6.25-3.12.83-7.45,1.46-12.97,1.87-1.04.94-1.56,2.79-1.56,5.55s.52,4.56,1.56,5.39c15.84-.42,24.79-.62,26.88-.62,12.6,0,26.82.2,42.65.62.84-.83,1.25-2.65,1.25-5.47s-.41-4.63-1.25-5.47c-2.18-.2-3.8-.36-4.84-.47-1.04-.1-2.53-.25-4.45-.46-1.93-.21-3.42-.47-4.46-.78-1.04-.32-2.26-.68-3.67-1.1-1.4-.41-2.42-.99-3.04-1.72-.63-.73-1.28-1.58-1.96-2.58-.68-.98-.94-2.13-.78-3.43.16-1.3.55-2.79,1.17-4.46l9.53-25c1.04-2.5,3.7-3.75,7.97-3.75h43.91l10.47,31.1c.41,1.46.67,2.71.78,3.75.1,1.04,0,2-.31,2.89-.32.88-.73,1.64-1.25,2.26-.53.63-1.31,1.1-2.35,1.41s-2,.63-2.89.94c-.88.31-2.11.52-3.67.62-1.56.11-2.94.21-4.14.31-1.2.11-2.81.21-4.84.32-2.04.1-3.68.15-4.93.15-.83.94-1.25,2.79-1.25,5.55s.42,4.56,1.25,5.39c15.84-.42,33.02-.62,51.57-.62h143.37c6.25,0,19.06.2,38.44.62,3.44-16.95,6.2-34.62,8.28-53.01-3.85-1.88-8.44-2.41-13.75-1.57-3.65,13.09-9.3,23.22-16.95,30.39-7.66,7.17-19.3,10.75-34.92,10.75h-6.41c-7.4,0-11.09-8.48-11.09-25.44v-69.72c0-6.49.47-11.7,1.41-15.63.94-3.92,2.75-6.8,5.42-8.63,2.67-1.84,5.31-3.04,7.93-3.62,2.62-.57,6.6-.97,11.94-1.17,1.47-.84,2.2-2.63,2.2-5.4s-.73-4.55-2.2-5.39c-7.11,0-13.94.06-20.48.16-6.53.1-11.7.21-15.49.31-3.79.11-7.49.16-11.13.16-8.66,0-24.62-.21-47.88-.63-1.46.84-2.19,2.64-2.19,5.39s.73,4.56,2.2,5.4c5.44.31,9.45.72,12.01,1.24,2.57.53,5.19,1.7,7.86,3.52,2.67,1.82,4.48,4.71,5.42,8.67.94,3.96,1.41,9.12,1.41,15.47v69.06c0,6.46-.47,11.64-1.41,15.55-.94,3.91-2.75,6.77-5.42,8.59-2.67,1.83-5.32,3-7.94,3.52-2.25.45-5.1,1.05-9.79,1-4.14-.04-6.1-.44-8.42-.84Zm-109.61-54.07c-2.61,0-4.32-.2-5.16-.62-.83-.42-1.04-1.15-.62-2.19l19.84-51.87h1.56l18.91,54.68h-34.53Z"/><path d="m920.5,55.94c8.54,0,24.84,1.3,48.91,3.91,3.85,24.27,6.09,39.64,6.72,46.09-4.48,2.6-8.75,3.12-12.81,1.56-2.4-7.92-4.32-13.67-5.78-17.27-1.46-3.59-3.83-7.37-7.11-11.33-3.28-3.96-7.6-6.64-12.97-8.05-5.37-1.41-12.21-2.11-20.55-2.11-3.02,0-6.33,1.02-9.92,3.05s-7.42,5.23-11.48,9.61-7.48,11.04-10.23,20c-2.76,8.96-4.14,19.43-4.14,31.41s1.27,22.58,3.83,31.17c2.55,8.59,5.96,14.92,10.23,18.98,4.27,4.06,8.49,6.95,12.66,8.67,4.17,1.72,8.59,2.58,13.28,2.58,21.15,0,37.86-6.41,50.16-19.22,3.44,1.46,5.68,3.8,6.72,7.03-13.44,19.17-33.02,28.75-58.75,28.75-27.92,0-48.73-6.98-62.42-20.94-13.7-13.96-20.55-31.93-20.55-53.91,0-26.88,7.89-46.93,23.67-60.16,15.78-13.23,35.96-19.84,60.55-19.84Z"/><path d="m1126.8,75.45c-15.24-13.01-35.38-19.51-60.42-19.51-23.23,0-42.53,7.23-57.89,21.69-15.37,14.47-23.05,34.08-23.05,58.85s7.73,43.15,23.2,55.61c15.47,12.46,34.82,18.69,58.05,18.69,24.84,0,44.87-6.7,60.11-20.1,15.24-13.39,22.86-32.81,22.86-58.26s-7.62-43.96-22.86-56.97Zm-30.66,107.46c-5.78,10.04-15.08,15.06-27.89,15.06-13.65,0-23.38-5.23-29.22-15.68-5.83-10.46-8.75-26.98-8.75-49.56s2.81-40.05,8.44-49.62c5.63-9.57,14.63-14.36,27.03-14.36,15.1,0,25.39,5.15,30.86,15.45,5.47,10.3,8.2,27.83,8.2,52.59,0,20.71-2.89,36.08-8.67,46.12Z"/><path d="m1276.16,197.34l-69.38-93.12c-3.86-5.21-6.09-7.76-6.72-7.66-1.04.1-1.56,3.85-1.56,11.25v60.78c0,12.81,1.27,20.65,3.83,23.52,2.55,2.87,8.93,4.77,19.14,5.7,1.04,1.04,1.59,2.84,1.64,5.39.05,2.55-.5,4.25-1.64,5.08-12.81-.42-23.02-.62-30.62-.62-9.58,0-20.78.21-33.59.62-.83-.83-1.25-2.52-1.25-5.08s.42-4.35,1.25-5.39c10.21-.62,16.59-2.45,19.14-5.47,2.55-3.02,3.83-10.94,3.83-23.75v-87.66c-3.44-6.35-9.74-9.9-18.91-10.62-1.88,0-2.81-.62-2.81-1.88v-7.66l.62-.94,64.69.62,73.28,99.53c1.67,2.4,2.71,3.62,3.12,3.67.42.05.83-1.38,1.25-4.3v-59.84c0-12.81-1.28-20.7-3.83-23.67-2.55-2.97-8.93-4.82-19.14-5.55-1.04-1.04-1.56-2.84-1.56-5.39s.52-4.24,1.56-5.08c12.81.42,24.01.62,33.59.62,7.71,0,17.97-.21,30.78-.62.83.83,1.25,2.53,1.25,5.08s-.42,4.35-1.25,5.39c-10.21.83-16.62,2.71-19.22,5.62-2.61,2.92-3.91,10.78-3.91,23.59v75.47l1.56,32.66c-2.71,1.25-7.14,2.21-13.28,2.89-6.15.68-12.5,1.02-19.06,1.02-4.48-4.06-8.75-8.8-12.81-14.22Z"/></g><g><path d="m336.86,438.03h66.59c12.92,0,31,.26,54.24.78,2.35-8.16,6.32-30.34,11.92-66.52-5.08-2.89-10.68-3.55-16.8-1.97-4.28,15.39-11.31,27.85-21.1,37.39-9.79,9.54-21.88,14.31-36.27,14.31h-16.73c-4.54,0-8.65-1.88-12.35-5.63-3.69-3.74-5.54-8.32-5.54-13.71v-57.03h8.75c13.87,0,23.11,1.4,27.71,4.2s7.16,8.63,7.68,17.48c1.17,1.3,3.87,1.95,8.11,1.95s6.86-.57,7.91-1.73c-.53-18.89-.79-28.6-.79-29.13,0-2.6.26-11.91.79-27.93-1.05-1.43-3.72-2.11-8.01-2.05-4.3.07-6.97.75-8.01,2.05-.52,10.42-2.82,16.61-6.9,18.56-4.09,1.95-13.58,2.93-28.49,2.93h-8.75v-41.6c0-4.82,1.78-9.28,5.35-13.38,3.56-4.1,7.74-6.15,12.54-6.15h18.86c13.99,0,24.3,3.32,30.91,9.96s12.31,17.57,17.11,32.81c6.11.78,11.45.13,16.01-1.95-.52-4.56-1.24-11.56-2.15-21-.91-9.44-1.69-17.65-2.34-24.62-.65-6.98-1.11-10.85-1.37-11.61-.13-.78-.72-1.17-1.76-1.17-6.17,1.04-12.73,1.56-19.69,1.56h-98.45l-61.74-.78c-1.04,1.04-1.56,3.29-1.56,6.74s.52,5.69,1.56,6.74c14.97.64,24.51,2.88,28.61,6.7,4.11,3.82,6.16,13.7,6.16,29.64v85.51c0,15.68-4.06,22.87-8.67,28.15-5.43,6.22-17.79,8.41-26.51,8.39s-15.62-2.07-21.09-6.21c-5.47-4.14-11.26-10.95-17.38-20.42l-54.3-84.82c12.25-5.32,22.71-13.7,31.4-25.13,8.69-11.44,13.03-26.44,13.03-45.02.13-24.29-9.84-42.54-29.92-54.75-14.62-8.71-36.35-13.06-65.2-13.06-5.34,0-26.36.46-63.08,1.37-36.72.91-57.75,1.36-63.09,1.36-1.82,1.02-2.73,3.17-2.73,6.46s.91,5.56,2.73,6.83c6.77.26,11.75.71,14.94,1.37,3.19.65,6.45,2.11,9.77,4.4,3.32,2.28,5.57,5.9,6.74,10.85,1.17,4.96,1.75,11.42,1.75,19.37v160.62c0,8.09-.58,14.58-1.75,19.47-1.17,4.89-3.42,8.48-6.74,10.76-3.32,2.28-6.61,3.75-9.86,4.41-3.26.65-8.21,1.1-14.85,1.36-1.82,1.17-2.73,3.42-2.73,6.74s.91,5.63,2.73,6.93c21.35-.49,41.93-.73,61.72-.73s39.39.24,60.74.73c1.96-1.22,2.9-3.37,2.83-6.44-.06-3.07-1.01-5.22-2.83-6.45-6.64-.26-11.55-.72-14.74-1.38-3.2-.66-6.45-2.15-9.77-4.47-3.32-2.31-5.6-5.98-6.83-11.01-1.24-5.02-1.86-11.57-1.86-19.63v-65.46c14.97,0,24.77.83,29.39,2.48,4.62,1.66,8.43,4.93,11.43,9.82l46.41,70.61c16.26,23.37,33.83,35.06,52.71,35.06,22.92,0,27.38-1.02,41.95-1.95,30.78-1.96,61.65-1.96,61.65-1.96Zm-182.6-141.44c-10.03,7.58-24.61,11.37-43.75,11.37h-17.19v-79.77c0-14.23,1.46-23.74,4.39-28.51s9.48-7.15,19.63-7.15c34.64,0,51.96,19.53,51.96,58.59,0,22.74-5.02,37.89-15.04,45.47Z"/><path d="m685.73,279.11c-2.88-7.14-7.44-13.03-13.71-17.66-9.92-7.28-28.07-10.92-54.44-10.92-5.34,0-16.67.46-33.99,1.37-17.32.91-27.73,1.37-31.25,1.37-14.97,0-33.92-.26-56.83-.78-1.05,1.06-1.57,3.43-1.57,7.1s.52,6.05,1.57,7.15c12.76.6,21.09,3.08,25,7.45,3.9,4.36,5.86,14.56,5.86,30.58v82.46c0,16.03-1.96,26.22-5.86,30.59-3.91,4.36-12.24,6.8-25,7.32-1.05,1.17-1.57,3.49-1.57,6.94s.52,5.69,1.57,6.73c22.39-.52,41.34-.78,56.83-.78s33.92.26,56.84.78c1.04-1.04,1.56-3.32,1.56-6.83s-.52-5.79-1.56-6.84c-12.89-.52-21.26-2.96-25.1-7.32-3.84-4.36-5.76-14.55-5.76-30.57v-27.93c6.9,2.87,18.23,4.3,33.98,4.3,25.98,0,45.43-6.48,58.35-19.43,12.92-12.96,19.39-27.71,19.39-44.24,0-6.75-1.44-13.69-4.31-20.84Zm-81.82,68.49c-10.68,0-19.21-1.17-25.59-3.51v-74.81c5.34-1.3,13.21-1.95,23.63-1.95,21.36-.2,32.03,12.95,32.03,39.45s-10.02,40.82-30.07,40.82Z"/><path d="m874.09,272.77c-19.05-16.26-44.23-24.39-75.54-24.39-29.03,0-53.15,9.05-72.36,27.13-19.21,18.08-28.81,42.6-28.81,73.55s9.67,53.94,29.01,69.52c19.33,15.57,43.52,23.36,72.55,23.36,31.05,0,56.1-8.37,75.15-25.12,19.04-16.75,28.57-41.02,28.57-72.83s-9.53-54.96-28.57-71.22Zm-38.33,134.33c-7.23,12.55-18.85,18.82-34.86,18.82-17.06,0-29.23-6.53-36.53-19.6-7.29-13.07-10.93-33.72-10.93-61.94s3.51-50.07,10.54-62.03c7.03-11.97,18.3-17.95,33.79-17.95,18.88,0,31.74,6.44,38.58,19.31,6.83,12.88,10.25,34.79,10.25,65.74,0,25.88-3.61,45.1-10.84,57.65Z"/><path d="m1129.53,426.12c-11.45-2.74-21.73-10.87-30.84-24.41l-30.25-46.1c-1.69-2.6-2.67-4.49-2.93-5.66,14.63-4.43,25.58-11.14,32.83-20.12,7.25-8.98,10.88-18.95,10.88-29.88,0-12.92-5.64-24.35-16.93-34.3-11.29-9.95-29.78-14.92-55.48-14.92-5.37,0-16.78.46-34.21,1.37-17.43.91-27.92,1.36-31.46,1.36-14.82,0-33.58-.26-56.27-.78-1.03,1.09-1.55,3.43-1.55,7.03s.5,5.95,1.5,7.03c12.3.66,20.33,3.16,24.1,7.52,3.77,4.37,5.65,14.55,5.65,30.57v82.42c0,16.02-1.88,26.21-5.65,30.57-3.77,4.36-11.8,6.8-24.1,7.32-1,1.17-1.5,3.49-1.5,6.94s.52,5.69,1.55,6.73c22.17-.52,40.93-.78,56.27-.78,9.74,0,26.18.26,49.32.78.32-1.04.48-3.32.48-6.83s-.5-5.79-1.5-6.84c-8.69-.78-14.69-3.42-17.98-7.91s-4.94-14.48-4.94-29.98v-32.03c6.1-.26,11.68,1.04,16.74,3.91.91.52,2.05,1.59,3.41,3.22,1.36,1.63,2.76,3.61,4.18,5.96l25.5,40.43c6.14,9.37,14,17.18,23.6,23.43,9.59,6.25,19.61,9.38,30.06,9.38,16.44,0,26.42-.91,29.91-2.74.52-1.04.78-3.09.78-6.15s-.39-5.24-1.17-6.54Zm-79.39-102.93c-2.01,4.56-4.47,8.04-7.39,10.45-2.92,2.41-7.04,4.27-12.36,5.57-5.32,1.3-10.38,2.08-15.18,2.34s-11.03.39-18.69.39v-73.05c5.32-1.3,13.56-2.01,24.72-2.15,21.28,0,31.92,13.35,31.92,40.04,0,6.38-1,11.85-3.02,16.41Z"/><path d="m1257.58,384.91c0,16.8,2.01,27.57,6.03,32.32,4.02,4.75,13.82,7.39,29.4,7.91,1.3,1.04,1.98,3.32,2.04,6.84.06,3.52-.62,5.8-2.04,6.84-27-.52-47.73-.78-62.22-.78s-34.22.26-60.72.78c-.26-1.04-.39-3.29-.39-6.74s.62-5.76,1.87-6.93c15.1-.52,24.55-3.16,28.36-7.91,3.81-4.75,5.71-15.53,5.71-32.32v-78.12c0-15.49-1.6-25.49-4.79-29.98-3.19-4.49-10.64-6.74-22.36-6.74-12.5,0-21.03,2.73-25.59,8.2-4.56,5.47-8.98,16.86-13.28,34.18-6.9,0-12.11-.65-15.62-1.95,5.34-22.92,8.72-42.38,10.16-58.4,0-.78.52-1.17,1.56-1.17,27.15,2.08,51.73,3.12,73.77,3.12h40.52c27.41,0,53.38-1.04,77.9-3.12.78,0,1.17.39,1.17,1.17.26,17.84,1.95,36.91,5.08,57.23-3,1.3-8.14,1.95-15.43,1.95-3.77-16.53-8.11-27.54-13.05-33.01s-14.6-8.2-29.01-8.2c-8.83,0-14.21,2.05-16.16,6.15-1.95,4.1-2.92,14.68-2.92,31.74v76.95Z"/></g><g><path d="m63.46,123.16c0,7.98.96,13.1,2.87,15.35,1.91,2.26,6.57,3.51,13.97,3.76.62.5.94,1.58.97,3.25.03,1.67-.29,2.75-.97,3.25-12.82-.25-22.67-.37-29.55-.37s-16.25.12-28.84.37c-.12-.49-.19-1.56-.19-3.2s.3-2.74.89-3.29c7.17-.25,11.66-1.5,13.47-3.76,1.81-2.26,2.71-7.38,2.71-15.35v-37.11c0-7.36-.76-12.11-2.27-14.24-1.52-2.13-5.06-3.2-10.62-3.2-5.94,0-9.99,1.3-12.15,3.9-2.17,2.6-4.27,8.01-6.31,16.24-3.28,0-5.75-.31-7.42-.93,2.54-10.88,4.14-20.13,4.82-27.74,0-.37.25-.56.74-.56,12.89.99,24.57,1.48,35.04,1.48h19.25c13.02,0,25.35-.49,37-1.48.37,0,.56.19.56.56.12,8.47.93,17.53,2.41,27.18-1.42.62-3.87.93-7.33.93-1.79-7.85-3.85-13.08-6.2-15.68-2.34-2.6-6.94-3.9-13.78-3.9-4.19,0-6.75.97-7.68,2.92s-1.39,6.97-1.39,15.08v36.55Z"/><path d="m183.65,85.57c0-8.05-.67-13.07-2.01-15.06s-4.93-3.15-10.79-3.47c-.5-.49-.75-1.56-.75-3.2s.28-2.71.83-3.2c10.86.25,19.23.37,25.1.37,7.33,0,16.28-.12,26.86-.37.49.5.76,1.56.79,3.2.03,1.64-.23,2.71-.79,3.2-6.06.25-10,1.42-11.83,3.53-1.83,2.1-2.74,6.96-2.74,14.57v39.15c0,7.61.91,12.45,2.74,14.52,1.82,2.07,5.77,3.23,11.83,3.48.49.5.76,1.58.79,3.25.03,1.67-.23,2.75-.79,3.25-10.88-.25-19.83-.37-26.86-.37-6.05,0-14.41.12-25.1.37-.56-.49-.83-1.56-.83-3.2s.25-2.74.75-3.29c5.85-.25,9.45-1.35,10.79-3.29s2.01-6.85,2.01-14.7v-18.65c-15.52-.43-29.44-.43-41.75,0v18.65c0,7.86.66,12.76,1.99,14.7,1.33,1.95,4.9,3.05,10.72,3.29.49.5.74,1.58.74,3.25s-.25,2.75-.74,3.25c-10.89-.25-19.24-.37-25.05-.37-7.36,0-16.36.12-27,.37-.5-.49-.74-1.56-.74-3.2s.25-2.74.74-3.29c6.06-.25,10.02-1.41,11.88-3.48,1.86-2.07,2.78-6.91,2.78-14.52v-39.15c0-7.61-.93-12.45-2.78-14.52-1.86-2.07-5.81-3.26-11.88-3.57-.5-.49-.74-1.56-.74-3.2s.25-2.71.74-3.2c10.88.25,19.88.37,27,.37,6.06,0,14.41-.12,25.05-.37.49.5.74,1.56.74,3.2s-.25,2.71-.74,3.2c-5.81.25-9.39,1.39-10.72,3.42-1.33,2.03-1.99,7.07-1.99,15.11v12.45c14.22.43,28.14.43,41.75,0v-12.45Z"/><path d="m274.05,98.02c7.08,0,11.59-.46,13.53-1.39,1.94-.93,3.03-3.86,3.28-8.81.49-.62,1.76-.94,3.8-.97,2.04-.03,3.31.29,3.8.97-.25,7.61-.37,12.03-.37,13.27,0,.25.12,4.86.37,13.84-.5.55-1.75.82-3.76.82s-3.29-.31-3.85-.93c-.25-4.21-1.46-6.97-3.65-8.3-2.19-1.33-6.57-1.99-13.16-1.99h-4.16v27.09c0,2.56.88,4.73,2.63,6.51,1.76,1.78,3.71,2.67,5.87,2.67h7.95c6.84,0,12.58-2.26,17.23-6.8,4.65-4.53,7.99-10.45,10.02-17.76,2.91-.75,5.57-.44,7.98.94-2.66,17.19-4.55,27.72-5.66,31.6-11.04-.25-19.63-.37-25.77-.37h-31.63c-13.27.12-22.96.25-29.08.37-.49-.49-.73-1.56-.73-3.2s.24-2.74.71-3.29c6.81-.25,11.14-1.28,13.01-3.09s2.8-6.45,2.8-13.89v-40.62c0-7.57-.97-12.26-2.92-14.08-1.95-1.81-6.48-2.88-13.59-3.18-.5-.49-.74-1.56-.74-3.2s.25-2.71.74-3.2l29.33.37h46.77c3.3,0,6.42-.25,9.35-.74.49,0,.77.19.83.56.12.36.34,2.2.65,5.51.31,3.31.68,7.21,1.11,11.7.43,4.48.77,7.81,1.02,9.97-2.17.99-4.7,1.3-7.61.93-2.28-7.24-4.99-12.43-8.13-15.59-3.14-3.15-8.04-4.73-14.68-4.73h-8.96c-2.28,0-4.26.97-5.96,2.92-1.69,1.95-2.54,4.07-2.54,6.35v19.76h4.16Z"/></g></svg>